<svg xmlns='http://www.w3.org/2000/svg' width='100%' height='100%' viewBox='0 0 800 800'>
    <style>
        :root {
            --color-bg: #FFF;
            --color-1: #0EF;
            --color-2: #0FF;
        }

        .r {
            animation: rotor 30s linear 0s infinite;
        }

        @keyframes rotor {
           from { transform: rotate(0deg); }
             to { transform: rotate(360deg); }
        }
    </style>
    <rect fill='var(--color-bg)' width='800' height='800'/>
    <defs>
        <radialGradient id='a' cx='400' cy='400' r='30%' gradientUnits='userSpaceOnUse'>    <!-- r = flare radius -->
            <stop offset='0' stop-color='var(--color-bg)'/>
            <stop offset='1' stop-color='var(--color-1)'/>
        </radialGradient>
        <radialGradient id='b' cx='0' cy='0' r='70%' gradientUnits='userSpaceOnUse'>  <!-- r = color isolation  -->
            <stop offset='0' stop-color='var(--color-bg)'/>
            <stop offset='1' stop-color='var(--color-2)'/>
        </radialGradient>
        <path id='arc' d='M00,0 l-37.2798,-570 l74.5596,0 z' />
    </defs>
    <rect fill='url(#a)' width='800' height='800'/>
    <g fill-opacity='.8' fill='url(#b)' transform="translate(400,400)">
        <g class="r">
            <use href='#arc' transform="rotate(0   0 0)"/>
            <use href='#arc' transform="rotate(15  0 0)"/>
            <use href='#arc' transform="rotate(30  0 0)"/>
            <use href='#arc' transform="rotate(45  0 0)"/>
            <use href='#arc' transform="rotate(60  0 0)"/>
            <use href='#arc' transform="rotate(75  0 0)"/>
            <use href='#arc' transform="rotate(90  0 0)"/>
            <use href='#arc' transform="rotate(105 0 0)"/>
            <use href='#arc' transform="rotate(120 0 0)"/>
            <use href='#arc' transform="rotate(135 0 0)"/>
            <use href='#arc' transform="rotate(150 0 0)"/>
            <use href='#arc' transform="rotate(165 0 0)"/>
            <use href='#arc' transform="rotate(180 0 0)"/>
            <use href='#arc' transform="rotate(195 0 0)"/>
            <use href='#arc' transform="rotate(210 0 0)"/>
            <use href='#arc' transform="rotate(225 0 0)"/>
            <use href='#arc' transform="rotate(240 0 0)"/>
            <use href='#arc' transform="rotate(255 0 0)"/>
            <use href='#arc' transform="rotate(270 0 0)"/>
            <use href='#arc' transform="rotate(285 0 0)"/>
            <use href='#arc' transform="rotate(300 0 0)"/>
            <use href='#arc' transform="rotate(315 0 0)"/>
            <use href='#arc' transform="rotate(330 0 0)"/>
            <use href='#arc' transform="rotate(345 0 0)"/>
        </g>
    </g>
</svg>